HIERARCHY
ROOT Hips
{
	OFFSET	0.00	0.00	0.00
	CHANNELS 6 Xposition Yposition Zposition Zrotation Xrotation Yrotation
	JOINT LeftUpLeg
	{
		OFFSET	 0.126116	-0.014019	-0.065224
		CHANNELS 3 Zrotation Xrotation Yrotation
		JOINT LeftLeg
		{
			OFFSET	 0.000000	 0.000000	 0.569914
			CHANNELS 3 Zrotation Xrotation Yrotation
			JOINT LeftFoot
			{
				OFFSET	 0.000000	 0.000000	 0.544423
				CHANNELS 3 Zrotation Xrotation Yrotation
				JOINT LeftToeBase
				{
					OFFSET	 0.000000	 0.000000	 0.207117
					CHANNELS 3 Zrotation Xrotation Yrotation
					End Site
					{
						OFFSET	 0.000000	 0.000000	 0.207117
					}
				}
			}
		}
	}
	JOINT RightUpLeg
	{
		OFFSET	-0.124023	-0.008373	-0.065224
		CHANNELS 3 Zrotation Xrotation Yrotation
		JOINT RightLeg
		{
			OFFSET	 0.000000	 0.000000	 0.570047
			CHANNELS 3 Zrotation Xrotation Yrotation
			JOINT RightFoot
			{
				OFFSET	 0.000000	 0.000000	 0.544354
				CHANNELS 3 Zrotation Xrotation Yrotation
				JOINT RightToeBase
				{
					OFFSET	 0.000000	 0.000000	 0.207540
					CHANNELS 3 Zrotation Xrotation Yrotation
					End Site
					{
						OFFSET	 0.000000	 0.000000	 0.207540
					}
				}
			}
		}
	}
	JOINT Spine
	{
		OFFSET	 0.000184	-0.007763	 0.117403
		CHANNELS 3 Zrotation Xrotation Yrotation
		JOINT Spine1
		{
			OFFSET	 0.000000	 0.000000	 0.137269
			CHANNELS 3 Zrotation Xrotation Yrotation
			JOINT Spine2
			{
				OFFSET	 0.000000	 0.000000	 0.156879
				CHANNELS 3 Zrotation Xrotation Yrotation
				JOINT LeftShoulder
				{
					OFFSET	 0.080501	-0.002496	 0.160144
					CHANNELS 3 Zrotation Xrotation Yrotation
					JOINT LeftArm
					{
						OFFSET	 0.000000	 0.000000	 0.164363
						CHANNELS 3 Zrotation Xrotation Yrotation
						JOINT LeftForeArm
						{
							OFFSET	 0.000000	 0.000000	 0.364576
							CHANNELS 3 Zrotation Xrotation Yrotation
							JOINT LeftHand
							{
								OFFSET	 0.000000	 0.000000	 0.360812
								CHANNELS 3 Zrotation Xrotation Yrotation
								JOINT LeftHandIndex1
								{
									OFFSET	 0.000000	 0.000000	 0.086006
									CHANNELS 3 Zrotation Xrotation Yrotation
									JOINT LeftHandIndex2
									{
										OFFSET	 0.000000	 0.000000	 0.047236
										CHANNELS 3 Zrotation Xrotation Yrotation
										JOINT LeftHandIndex3
										{
											OFFSET	-0.004284	-0.000551	 0.038166
											CHANNELS 3 Zrotation Xrotation Yrotation
											End Site
											{
												OFFSET	-0.004284	-0.000551	 0.038166
											}
										}
									}
								}
							}
						}
					}
				}
				JOINT Neck
				{
					OFFSET	 0.000000	 0.000000	 0.176489
					CHANNELS 3 Zrotation Xrotation Yrotation
					JOINT Head
					{
						OFFSET	 0.000000	-0.001747	 0.077940
						CHANNELS 3 Zrotation Xrotation Yrotation
						End Site
						{
							OFFSET	 0.000000	-0.001747	 0.077940
						}
					}
				}
				JOINT RightShoulder
				{
					OFFSET	-0.080363	 0.000306	 0.159706
					CHANNELS 3 Zrotation Xrotation Yrotation
					JOINT RightArm
					{
						OFFSET	 0.000000	 0.000000	 0.164196
						CHANNELS 3 Zrotation Xrotation Yrotation
						JOINT RightForeArm
						{
							OFFSET	 0.000000	 0.000000	 0.365611
							CHANNELS 3 Zrotation Xrotation Yrotation
							JOINT RightHand
							{
								OFFSET	 0.000000	 0.000000	 0.360648
								CHANNELS 3 Zrotation Xrotation Yrotation
								JOINT RightHandIndex1
								{
									OFFSET	 0.000000	 0.000000	 0.069977
									CHANNELS 3 Zrotation Xrotation Yrotation
									JOINT RightHandIndex2
									{
										OFFSET	 0.000000	 0.000000	 0.052305
										CHANNELS 3 Zrotation Xrotation Yrotation
										JOINT RightHandIndex3
										{
											OFFSET	 0.009002	-0.000782	 0.042196
											CHANNELS 3 Zrotation Xrotation Yrotation
											End Site
											{
												OFFSET	 0.009002	-0.000782	 0.042196
											}
										}
									}
								}
							}
						}
					}
				}
			}
		}
	}
}
MOTION
Frames:    9
Frame Time: 0.03333334
-0.058976	-2.248858	 1.248991	 4.200685	-1.716337	-3.336582	 16.936330	-5.083179	-174.708600	 0.390175	-29.052810	 0.015544	 23.618700	 71.983090	-26.475910	-2.371164	 31.316470	-0.063180	-20.265160	-30.894170	-176.144400	 9.885251	-51.181610	 8.290941	 3.404074	 61.467100	 3.140414	 2.357960	 33.148060	 0.106663	 12.582310	 8.948358	 1.504195	 0.067597	 2.780859	 1.281097	-3.749882	-2.560254	-1.729759	-93.786670	 58.880000	 175.721700	 11.274020	 30.655750	-42.933330	 5.981181	-0.511115	-4.059349	 23.311230	-13.993590	-0.715146	-4.869423	 19.241010	-2.786456	-3.890045	 21.363670	 2.211411	-4.808243	 5.545675	 0.146960	-0.120749	-5.021601	 0.161290	-5.900407	 2.256513	 2.566059	 89.826550	 61.588960	-179.894100	-19.386460	 49.763110	 14.672570	-8.010050	-0.752430	 4.722629	-27.632970	 1.045333	 1.246702	 6.303279	 25.869700	-0.573160	 1.745896	 45.804490	-6.868286	 0.368473	 24.964120	 3.649021
-0.060801	-2.291641	 1.248055	 4.714537	-1.451430	-3.303239	 16.329770	-2.968032	-175.514000	 0.767443	-28.161160	 0.157740	 22.970670	 73.373290	-25.895620	-2.370262	 31.470570	-0.066656	-21.867770	-32.997150	-177.742900	 9.252794	-45.574990	 7.185076	 0.919777	 59.472610	 6.098084	 2.358485	 33.071140	 0.104883	 7.926505	 8.816274	 1.511513	-0.227410	 3.019248	 1.070344	-3.417840	-2.762095	-1.498972	-93.882270	 58.956110	 175.509000	 9.754210	 28.570140	-43.949880	 7.522124	-0.828665	-5.209608	 22.990800	-10.411950	-3.226575	-4.869187	 19.245780	-2.786507	-3.886227	 21.412640	 2.207526	-4.808265	 5.545484	 0.146968	-0.092195	-5.055672	 0.175835	-5.477311	 2.243656	 2.475355	 89.796570	 61.627090	-179.965500	-19.557310	 51.048900	 11.782970	-10.167760	-2.008342	 8.418292	-27.157290	 5.397990	 2.893177	 6.297102	 25.216180	-0.552036	 1.838167	 45.080490	-6.950877	 0.477377	 24.490290	 3.593128
-0.062991	-2.336538	 1.245062	 5.277002	-1.093300	-3.283864	 15.553690	-0.956030	-176.331300	 0.977012	-27.412940	 0.287433	 22.065900	 74.856580	-25.057500	-2.369264	 31.637120	-0.070427	-23.573240	-34.472440	-179.515500	 8.794094	-38.492500	 5.979194	-1.574715	 57.363160	 8.873336	 2.358923	 33.006200	 0.103373	 2.887054	 8.614941	 1.503584	-0.519660	 3.237412	 0.885023	-3.034004	-2.967676	-1.257523	-93.997300	 59.016970	 175.255700	 8.184091	 26.486000	-44.939170	 9.203450	-1.246567	-6.380754	 22.645280	-7.206720	-5.444622	-4.867738	 19.283910	-2.789213	-3.880931	 21.480360	 2.202152	-4.807296	 5.556842	 0.146306	-0.061528	-5.088490	 0.198962	-4.998489	 2.225725	 2.390372	 89.757710	 61.675510	 179.941800	-19.559050	 52.245110	 9.081326	-12.416880	-3.379441	 11.579420	-26.549960	 9.433224	 4.237079	 6.288398	 24.411680	-0.539562	 1.942988	 44.231720	-7.044290	 0.623042	 23.850060	 3.519524
-0.065166	-2.374206	 1.241481	 5.716023	-0.666017	-3.280062	 15.016140	 0.513651	-176.982300	 1.127009	-26.989910	 0.351419	 21.111370	 76.160690	-24.087280	-2.368503	 31.763450	-0.073291	-25.062430	-35.130780	 178.885300	 8.662307	-31.955710	 5.018330	-3.725283	 55.955230	 11.007050	 2.359008	 32.994370	 0.103095	-1.394938	 8.331194	 1.461793	-0.773808	 3.323395	 0.766229	-2.696249	-3.100600	-1.064460	-94.109430	 59.018910	 175.016200	 6.954816	 24.929860	-45.602600	 10.804190	-1.663087	-7.336257	 22.342250	-5.020950	-6.724623	-4.864180	 19.380580	-2.796718	-3.874537	 21.562150	 2.195645	-4.804556	 5.589177	 0.144415	-0.038697	-5.105148	 0.231669	-4.594287	 2.211675	 2.350206	 89.715010	 61.727190	 179.839600	-19.426800	 53.048340	 7.506978	-14.451780	-4.147014	 12.817670	-25.955120	 12.285180	 4.979962	 6.276986	 23.600060	-0.550961	 2.036301	 43.451930	-7.127060	 0.791271	 23.101560	 3.436171
-0.067943	-2.415401	 1.236657	 6.114040	-0.180805	-3.317258	 14.511280	 2.067820	-177.683000	 1.277186	-26.697580	 0.415376	 19.839490	 77.788460	-22.805710	-2.367440	 31.937290	-0.077243	-26.302120	-35.873700	 177.243000	 8.715322	-25.859680	 4.162663	-5.379405	 55.312400	 12.369610	 2.359556	 32.912980	 0.101209	-6.107274	 7.978544	 1.450984	-1.058999	 3.336414	 0.603253	-2.304771	-3.187761	-0.834464	-94.229320	 59.004910	 174.762400	 5.839842	 23.523390	-46.180150	 12.408960	-2.176414	-8.338672	 21.627200	-3.280724	-7.547256	-4.858345	 19.526680	-2.805734	-3.865873	 21.672590	 2.186844	-4.800059	 5.642165	 0.141308	-0.018373	-5.131294	 0.268122	-4.148807	 2.191006	 2.327167	 89.657060	 61.797840	 179.700300	-19.122470	 53.631910	 6.879108	-16.907010	-4.069324	 12.044880	-25.099440	 14.782320	 5.257018	 6.262143	 22.624840	-0.572454	 2.136452	 42.588420	-7.215466	 0.997695	 22.169860	 3.336420
-0.071115	-2.456858	 1.229367	 6.347181	 0.303603	-3.476665	 14.119960	 3.735080	-178.304400	 1.392351	-26.451150	 0.463129	 18.412540	 79.741130	-21.350120	-2.365948	 32.176150	-0.082698	-27.108050	-38.371680	 175.640200	 9.093873	-23.139520	 3.904036	-6.536272	 55.080730	 13.070380	 2.360995	 32.698440	 0.096229	-10.743410	 7.602597	 1.537301	-1.329642	 3.374526	 0.473071	-1.886915	-3.242410	-0.624368	-94.340110	 58.958980	 174.533200	 4.858379	 22.352840	-46.801690	 13.748640	-2.748176	-9.305331	 20.295420	-2.309932	-7.516704	-4.848833	 19.748090	-2.816091	-3.854172	 21.821110	 2.174958	-4.792735	 5.728306	 0.136253	-0.008003	-5.172308	 0.304706	-3.711021	 2.165897	 2.345689	 89.578770	 61.894250	 179.511000	-18.674050	 54.075220	 6.424182	-19.573510	-3.762946	 11.012220	-24.000310	 16.569050	 4.836352	 6.242853	 21.508090	-0.610981	 2.232634	 41.732360	-7.299925	 1.242816	 21.044650	 3.221629
-0.074110	-2.492667	 1.221981	 6.477885	 0.621305	-3.606262	 13.726740	 5.247377	-178.851500	 1.469346	-26.317870	 0.495109	 16.395720	 81.376430	-19.297000	-2.363564	 32.548580	-0.091237	-27.262450	-40.990760	 174.521400	 9.329537	-22.569520	 3.905584	-7.117384	 57.456910	 13.107210	 2.359293	 32.952980	 0.102128	-14.646270	 7.292122	 1.670074	-1.553097	 3.475775	 0.250481	-1.512139	-3.289580	-0.391698	-94.413250	 58.919750	 174.383700	 4.085853	 21.599520	-47.264010	 14.873950	-3.268270	-10.079390	 18.827540	-2.091394	-7.285837	-4.839515	 19.946370	-2.821200	-3.842208	 21.972610	 2.162802	-4.784289	 5.827564	 0.130413	 0.003743	-5.214012	 0.326750	-3.324852	 2.130793	 2.351244	 89.517940	 61.962090	 179.363100	-18.171500	 54.361940	 6.074090	-21.858420	-3.363548	 10.101160	-22.762840	 17.305600	 3.963724	 6.224075	 20.484270	-0.649861	 2.346075	 40.687310	-7.398955	 1.464993	 20.007280	 3.121124
-0.077085	-2.528283	 1.215194	 6.533337	 0.829361	-3.720180	 13.391550	 6.804359	-179.409500	 1.522228	-26.225140	 0.516860	 13.099180	 82.806080	-15.941690	-2.360013	 33.082270	-0.103569	-26.801700	-43.007320	 173.907000	 9.363340	-22.373690	 3.887223	-7.312877	 61.902970	 12.633950	 2.354440	 33.650730	 0.118422	-18.363630	 6.958044	 1.777519	-1.788414	 3.667045	 0.062695	-1.127374	-3.344930	-0.179065	-94.461650	 58.881850	 174.286800	 3.391794	 21.072410	-47.535380	 15.947060	-3.795108	-10.786950	 17.119420	-2.424963	-6.925552	-4.829305	 20.147470	-2.822297	-3.828558	 22.144500	 2.148939	-4.773861	 5.950005	 0.123187	 0.018028	-5.261271	 0.338579	-2.939951	 2.083171	 2.346578	 89.465190	 62.012700	 179.234300	-17.598630	 54.715740	 4.870977	-23.990770	-3.898401	 10.800810	-21.317960	 17.276790	 2.696863	 6.203426	 19.422370	-0.693567	 2.484984	 39.353190	-7.519296	 1.692997	 18.925790	 3.021590
-0.080441	-2.570243	 1.209086	 6.645232	 0.971912	-3.825811	 12.968980	 8.585417	 179.932000	 1.614183	-26.191040	 0.556841	 7.402446	 84.140070	-10.208910	-2.353138	 34.054030	-0.126335	-26.323790	-43.722640	 173.567000	 9.540649	-21.643590	 3.834154	-7.003593	 65.943150	 11.410110	 2.347384	 34.599170	 0.140906	-22.556820	 6.794340	 1.891857	-2.094216	 3.394599	-0.198296	-0.696577	-3.244070	 0.081472	-94.504980	 58.869660	 174.196800	 2.764690	 20.728850	-47.415630	 17.255190	-4.408102	-11.529500	 15.024830	-3.868179	-6.537485	-4.828408	 20.326830	-2.870220	-3.812619	 22.344350	 2.132752	-4.759270	 6.120861	 0.113060	 0.046211	-5.316066	 0.348170	-2.491046	 2.045116	 2.286354	 89.414310	 62.025800	 179.110900	-16.872080	 55.046050	 3.513387	-26.276080	-4.518358	 11.535290	-19.440710	 16.205810	 1.026979	 6.183622	 18.183850	-0.714206	 2.642833	 37.760350	-7.654696	 1.953446	 17.669770	 2.912478
